<svg width="61" height="82" viewBox="0 0 61 82" fill="none" xmlns="http://www.w3.org/2000/svg">
<g clip-path="url(#clip0)">
<path d="M0.0239258 10.0978L30.0016 0.154541L60.7866 9.92103L55.802 46.8437L30.0016 60.1456L4.60488 47.0205L0.0239258 10.0978Z" fill="#E23237"/>
<path d="M60.7865 9.92103L30.0015 0.154541V60.1456L55.8018 46.8659L60.7865 9.92103V9.92103Z" fill="#B52E31"/>
<path d="M30.0492 7.15918L11.3696 45.8496L18.3477 45.7391L22.098 37.011H38.8551L42.9614 45.8496L49.6309 45.9601L30.0492 7.15918ZM30.0969 19.5552L36.4104 31.8405H24.5425L30.0969 19.5552Z" fill="white"/>
</g>
<path d="M6.24951 75.671H2.91064L2.27588 77.5753H0.250977L3.69141 68.3331H5.45605L8.91553 77.5753H6.89062L6.24951 75.671ZM3.4248 74.1285H5.73535L4.57373 70.6691L3.4248 74.1285ZM17.2944 77.5753H15.3901L11.6831 71.4943V77.5753H9.77881V68.3331H11.6831L15.3965 74.4269V68.3331H17.2944V77.5753ZM26.27 76.4073C25.9272 76.8178 25.4427 77.1373 24.8164 77.3658C24.1901 77.5901 23.4961 77.7023 22.7344 77.7023C21.9346 77.7023 21.2321 77.5288 20.627 77.1818C20.026 76.8305 19.5605 76.3227 19.2305 75.6583C18.9046 74.9939 18.7375 74.2132 18.729 73.316V72.6876C18.729 71.7651 18.8835 70.9674 19.1924 70.2946C19.5055 69.6175 19.9541 69.1012 20.5381 68.7457C21.1263 68.386 21.814 68.2062 22.6011 68.2062C23.6971 68.2062 24.554 68.4685 25.1719 68.9933C25.7897 69.5138 26.1558 70.2734 26.27 71.2721H24.4165C24.3319 70.7431 24.1436 70.3559 23.8516 70.1105C23.5638 69.865 23.166 69.7423 22.6582 69.7423C22.0107 69.7423 21.5177 69.9856 21.1792 70.4723C20.8407 70.9589 20.6693 71.6826 20.665 72.6432V73.2335C20.665 74.2026 20.8491 74.9347 21.2173 75.4298C21.5854 75.9249 22.125 76.1725 22.8359 76.1725C23.5511 76.1725 24.061 76.0201 24.3657 75.7155V74.1222H22.6328V72.7194H26.27V76.4073ZM34.814 68.3331V74.4205C34.814 75.4319 34.4966 76.2317 33.8618 76.8199C33.2313 77.4082 32.368 77.7023 31.272 77.7023C30.1929 77.7023 29.3359 77.4166 28.7012 76.8453C28.0664 76.274 27.7427 75.4891 27.73 74.4904V68.3331H29.6343V74.4332C29.6343 75.0384 29.7782 75.4806 30.0659 75.7599C30.3579 76.035 30.7599 76.1725 31.272 76.1725C32.3426 76.1725 32.8864 75.6097 32.9033 74.484V68.3331H34.814ZM38.2798 76.0455H42.3232V77.5753H36.3755V68.3331H38.2798V76.0455ZM48.7661 75.671H45.4272L44.7925 77.5753H42.7676L46.208 68.3331H47.9727L51.4321 77.5753H49.4072L48.7661 75.671ZM45.9414 74.1285H48.252L47.0903 70.6691L45.9414 74.1285ZM55.7168 74.192H54.1997V77.5753H52.2954V68.3331H55.7295C56.8213 68.3331 57.6634 68.5765 58.2559 69.0631C58.8483 69.5498 59.1445 70.2374 59.1445 71.1261C59.1445 71.7566 59.007 72.2835 58.7319 72.7067C58.4611 73.1256 58.0485 73.4599 57.4941 73.7096L59.4937 77.4865V77.5753H57.4497L55.7168 74.192ZM54.1997 72.6495H55.7358C56.214 72.6495 56.5843 72.5289 56.8467 72.2877C57.109 72.0423 57.2402 71.7059 57.2402 71.2784C57.2402 70.8426 57.1154 70.4998 56.8657 70.2501C56.6203 70.0004 56.2415 69.8756 55.7295 69.8756H54.1997V72.6495Z" fill="black"/>
<defs>
<clipPath id="clip0">
<rect width="61" height="60.3363" fill="white"/>
</clipPath>
</defs>
</svg>
