<svg width="79" height="111" viewBox="0 0 79 111" fill="none" xmlns="http://www.w3.org/2000/svg">
<path d="M39.4517 110.72L7.30183 101.827L0.137207 21.7591H78.8626L71.6905 101.814L39.4517 110.72V110.72Z" fill="#264DE4"/>
<path d="M65.5506 96.7166L71.6792 28.3056H39.5V103.913L65.5506 96.7166V96.7166Z" fill="#2965F1"/>
<path d="M16.562 58.0016L17.4452 67.8216H39.5001V58.0016H16.562Z" fill="#EBEBEB"/>
<path d="M14.7871 38.1259L15.683 47.9459H39.5002V38.1259H14.7871V38.1259Z" fill="#EBEBEB"/>
<path d="M39.4998 83.5052L39.4566 83.5166L28.4805 80.5636L27.7788 72.7318H17.8853L19.2659 88.1506L39.4544 93.7344L39.4998 93.7221V83.5052Z" fill="#EBEBEB"/>
<path d="M18.665 0H30.6014V4.97378H23.6569V9.94757H30.6021V14.921H18.665V0Z" fill="black"/>
<path d="M32.9891 0H44.9258V4.325H37.9809V5.18994H44.9258V15.1375H32.9894V10.5957H39.9343V9.7308H32.9888V0H32.9891Z" fill="black"/>
<path d="M47.3135 0H59.2502V4.325H52.3053V5.18994H59.2502V15.1375H47.3135V10.5957H54.2584V9.7308H47.3138V0H47.3135Z" fill="black"/>
<path d="M62.3752 58.0017L64.1543 38.1259H39.4661V47.9459H53.3535L52.4567 58.0017H39.4661V67.8216H51.6022L50.4579 80.5574L39.4658 83.5135V93.7298L59.6704 88.1506L59.8185 86.4915L62.1348 60.6386L62.3752 58.0017V58.0017Z" fill="white"/>
</svg>
