<svg width="63" height="83" viewBox="0 0 63 83" fill="none" xmlns="http://www.w3.org/2000/svg">
<path d="M15.75 83C24.444 83 31.5 76.8027 31.5 69.1667V55.3334H15.75C7.056 55.3334 0 61.5307 0 69.1667C0 76.8027 7.056 83 15.75 83Z" fill="#0ACF83"/>
<path d="M0 41.5C0 33.864 7.056 27.6666 15.75 27.6666H31.5V55.3333H15.75C7.056 55.3333 0 49.136 0 41.5Z" fill="#A259FF"/>
<path d="M0 13.8333C0 6.19733 7.056 0 15.75 0H31.5V27.6667H15.75C7.056 27.6667 0 21.4693 0 13.8333Z" fill="#F24E1E"/>
<path d="M31.5 0H47.25C55.944 0 63 6.19733 63 13.8333C63 21.4693 55.944 27.6667 47.25 27.6667H31.5V0Z" fill="#FF7262"/>
<path d="M63 41.5C63 49.136 55.944 55.3333 47.25 55.3333C38.556 55.3333 31.5 49.136 31.5 41.5C31.5 33.864 38.556 27.6666 47.25 27.6666C55.944 27.6666 63 33.864 63 41.5Z" fill="#1ABCFE"/>
</svg>
