<svg width="75" height="80" viewBox="0 0 75 80" fill="none" xmlns="http://www.w3.org/2000/svg">
<g clip-path="url(#clip0)">
<path d="M37.9631 0C21.2965 0 8.3335 12.3077 8.3335 28.1318C8.3335 46.5933 25.9261 54.5053 28.7039 54.5053C30.5557 54.5053 30.5557 53.6262 30.5557 52.7471V48.3515C24.0742 50.1097 21.2965 46.5933 20.3705 43.9559C20.3705 43.9559 20.3705 43.0768 18.5187 41.3185C17.5928 40.4394 13.8891 38.6812 17.5928 38.6812C20.3705 38.6812 22.2224 42.1977 22.2224 42.1977C25.0002 45.7141 28.7039 44.835 30.5557 43.9559C30.5557 42.1977 32.4076 40.4394 32.4076 40.4394C25.0002 39.5603 19.4446 36.923 19.4446 27.2527C19.4446 23.7362 20.3705 21.0988 22.2224 19.3406C22.2224 19.3406 20.3705 15.8241 22.2224 11.4285C22.2224 11.4285 26.852 11.4285 30.5557 14.945C33.3335 13.1868 42.5928 13.1868 45.3705 14.945C49.0742 11.4285 53.7039 11.4285 53.7039 11.4285C55.5557 17.5824 53.7039 19.3406 53.7039 19.3406C55.5557 21.0988 56.4816 23.7362 56.4816 27.2527C56.4816 36.923 50.0002 39.5603 43.5187 40.4394C44.4446 41.3185 45.3705 43.0768 45.3705 45.7141V52.7471C45.3705 53.6262 45.3705 54.5053 47.2224 54.5053C50.0002 54.5053 67.5928 46.5933 67.5928 28.1318C67.5928 12.3077 54.6298 0 37.9631 0Z" fill="black"/>
</g>
<g clip-path="url(#clip1)">
<path d="M14.4574 68.9122H8.1498C7.98706 68.9122 7.85493 69.0378 7.85493 69.1924V72.1217C7.85493 72.2763 7.98706 72.4021 8.14966 72.4021H10.6104V76.0416C10.6104 76.0416 10.0579 76.2205 8.53037 76.2205C6.72817 76.2205 4.21055 75.595 4.21055 70.3365C4.21055 65.077 6.83218 64.3851 9.29326 64.3851C11.4236 64.3851 12.3415 64.7413 12.9253 64.913C13.1089 64.9664 13.2787 64.7929 13.2787 64.6382L13.9822 61.8078C13.9822 61.7354 13.9564 61.6483 13.8696 61.5892C13.6324 61.4285 12.1856 60.6594 8.53022 60.6594C4.31953 60.6594 0 62.3611 0 70.5416C0 78.7224 4.94531 79.9414 9.11279 79.9414C12.5632 79.9414 14.6563 78.5408 14.6563 78.5408C14.7428 78.4956 14.752 78.3811 14.752 78.3285V69.1924C14.752 69.0379 14.6202 68.9122 14.4576 68.9122H14.4574ZM46.9477 61.6834C46.9477 61.5275 46.8176 61.4017 46.6548 61.4017H43.1032C43.0644 61.4019 43.026 61.4093 42.9902 61.4235C42.9545 61.4378 42.922 61.4585 42.8947 61.4847C42.8674 61.5108 42.8458 61.5418 42.8311 61.5759C42.8164 61.61 42.8089 61.6465 42.809 61.6834L42.8099 68.203H37.274V61.6835C37.274 61.5277 37.1433 61.4019 36.9809 61.4019H33.4292C33.351 61.4023 33.2761 61.4322 33.2211 61.485C33.1661 61.5378 33.1354 61.6092 33.1358 61.6835V79.3366C33.1358 79.4924 33.2676 79.619 33.4292 79.619H36.9807C37.1432 79.619 37.2737 79.4924 37.2737 79.3366V71.7857H42.8098L42.8001 79.3365C42.8001 79.4923 42.9319 79.6189 43.0942 79.6189H46.6544C46.817 79.6189 46.9471 79.4923 46.9474 79.3365V61.6835L46.9477 61.6834ZM21.1479 64.0436C21.1479 62.8289 20.1226 61.8471 18.8577 61.8471C17.5939 61.8471 16.5678 62.8288 16.5678 64.0436C16.5678 65.2569 17.5939 66.2413 18.8577 66.2413C20.1226 66.2413 21.1479 65.2569 21.1479 64.0436V64.0436ZM20.8661 75.6218V67.4732C20.8661 67.3184 20.7347 67.192 20.5723 67.192H17.0319C16.8694 67.192 16.7243 67.3511 16.7243 67.5059V79.1805C16.7243 79.5236 16.9493 79.6256 17.2406 79.6256H20.4303C20.7804 79.6256 20.8661 79.4624 20.8661 79.1749V75.6218V75.6218ZM60.5218 67.1921H56.9974C56.8356 67.1921 56.7041 67.3186 56.7041 67.4743V76.1302C56.7041 76.1302 55.8088 76.7525 54.5379 76.7525C53.2671 76.7525 52.9299 76.2047 52.9299 75.0228V67.4744C52.9299 67.3186 52.7985 67.192 52.6368 67.192H49.0598C48.8984 67.192 48.7661 67.3186 48.7661 67.4744V75.5944C48.7661 79.1049 50.8261 79.9638 53.6599 79.9638C55.9846 79.9638 57.8588 78.744 57.8588 78.744C57.8588 78.744 57.9482 79.3868 57.9885 79.4631C58.0289 79.5392 58.1341 79.6158 58.2478 79.6158L60.5234 79.6064C60.6848 79.6064 60.8171 79.4796 60.8171 79.3246L60.8159 67.4743C60.8159 67.3186 60.6841 67.1921 60.5218 67.1921V67.1921ZM68.6421 76.7591C67.4197 76.7238 66.5905 76.1969 66.5905 76.1969V70.6063C66.5905 70.6063 67.4086 70.1301 68.4122 70.0449C69.6813 69.9369 70.9043 70.3011 70.9043 73.177C70.9043 76.2095 70.3523 76.808 68.6421 76.759V76.7591ZM70.0323 66.8129C68.0306 66.8129 66.669 67.6613 66.669 67.6613V61.6834C66.6693 61.6466 66.6619 61.6101 66.6473 61.5761C66.6327 61.542 66.6112 61.511 66.584 61.4848C66.5568 61.4587 66.5244 61.4379 66.4887 61.4236C66.453 61.4094 66.4147 61.4019 66.376 61.4017H62.8143C62.7755 61.4019 62.7372 61.4093 62.7014 61.4236C62.6657 61.4378 62.6333 61.4586 62.606 61.4848C62.5788 61.5109 62.5572 61.5419 62.5426 61.576C62.5279 61.6101 62.5205 61.6466 62.5207 61.6834V79.3365C62.5207 79.4923 62.6522 79.6189 62.8147 79.6189H65.2859C65.3972 79.6189 65.4814 79.5646 65.5437 79.4691C65.6051 79.3742 65.6937 78.6551 65.6937 78.6551C65.6937 78.6551 67.15 79.9661 69.907 79.9661C73.1437 79.9661 75 78.4066 75 72.9652C75 67.5238 72.0355 66.8128 70.0323 66.8128V66.8129ZM31.0882 67.1615H28.4241L28.42 63.8183C28.42 63.6919 28.3515 63.6286 28.1974 63.6286H24.5669C24.4257 63.6286 24.35 63.6875 24.35 63.8164V67.2713C24.35 67.2713 22.5306 67.6884 22.4076 67.7221C22.3462 67.739 22.2923 67.7744 22.2539 67.8229C22.2156 67.8714 22.1948 67.9305 22.1949 67.9912V70.1622C22.1949 70.3183 22.3261 70.4442 22.4886 70.4442H24.35V75.667C24.35 79.5463 27.2146 79.9274 29.1478 79.9274C30.0311 79.9274 31.0876 79.6579 31.2621 79.5968C31.3676 79.5599 31.4288 79.4563 31.4288 79.3436L31.4317 76.9553C31.4317 76.7996 31.2933 76.6736 31.1373 76.6736C30.982 76.6736 30.5851 76.7335 30.1761 76.7335C28.8675 76.7335 28.4241 76.1556 28.4241 75.4075L28.424 70.4444H31.0882C31.127 70.4442 31.1655 70.4368 31.2012 70.4225C31.237 70.4083 31.2695 70.3874 31.2968 70.3612C31.3241 70.335 31.3457 70.3039 31.3603 70.2698C31.375 70.2356 31.3824 70.1991 31.3821 70.1622V67.443C31.3821 67.2871 31.2507 67.1616 31.0882 67.1616V67.1615Z" fill="#11110F"/>
</g>
<defs>
<clipPath id="clip0">
<rect width="59.2593" height="56.2636" fill="white" transform="translate(8.3335)"/>
</clipPath>
<clipPath id="clip1">
<rect width="75" height="19.3406" fill="white" transform="translate(0 60.6594)"/>
</clipPath>
</defs>
</svg>
