<svg width="79" height="111" viewBox="0 0 79 111" fill="none" xmlns="http://www.w3.org/2000/svg">
<path d="M78.863 21.7591L71.691 101.814L39.4522 110.72L7.30232 101.827L0.137695 21.7591H78.863Z" fill="#E44D26"/>
<path d="M39.5 103.913L65.5506 96.7166L71.6792 28.3056H39.5V103.913Z" fill="#F16529"/>
<path d="M25.558 47.9459H39.5002V38.1259H14.7871L15.0229 40.7604L17.4453 67.8216H39.5002V58.0017H26.4587L25.558 47.9459V47.9459Z" fill="#EBEBEB"/>
<path d="M27.7788 72.7318H17.8853L19.2659 88.1506L39.4544 93.7344L39.4998 93.7221V83.5052L39.4566 83.5166L28.4805 80.5636L27.7788 72.7318V72.7318Z" fill="#EBEBEB"/>
<path d="M7.46143 0H12.4699V4.93043H17.0516V0H22.0604V14.9306H17.0519V9.93096H12.4702V14.9306H7.46173V0H7.46143Z" fill="black"/>
<path d="M28.6469 4.95134H24.2383V0H38.0676V4.95134H33.6563V14.9306H28.6478V4.95134H28.6475H28.6469Z" fill="black"/>
<path d="M40.2622 0H45.4845L48.697 5.24621L51.9064 0H57.1309V14.9306H52.1428V7.53016L48.697 12.8388H48.6106L45.1627 7.53016V14.9306H40.2622V0Z" fill="black"/>
<path d="M59.6234 0H64.6334V9.99553H71.6767V14.9306H59.623V0H59.6234Z" fill="black"/>
<path d="M39.4661 67.8216H51.6022L50.4579 80.5574L39.4658 83.5135V93.7298L59.6704 88.1506L59.8185 86.4914L62.1348 60.6386L62.3752 58.0016H39.4661V67.8216Z" fill="white"/>
<path d="M39.4658 47.9219V47.9459H63.2717L63.4692 45.7388L63.9185 40.7604L64.1539 38.1259H39.4658V47.9222V47.9219Z" fill="white"/>
</svg>
