<svg width="68" height="68" viewBox="0 0 68 68" fill="none" xmlns="http://www.w3.org/2000/svg">
<rect y="1" width="68" height="66" fill="#62341D"/>
<path d="M0 0.852173V67.1479H68V0.852173H0ZM2.83262 3.6848H65.1653V64.3132H2.83262V3.6848ZM23.5854 38.3946L21.3392 46.8839C21.2946 47.1283 21.2054 47.1708 20.9291 47.1708H16.7684C16.4815 47.1708 16.4369 47.0815 16.4815 46.7607L24.5267 18.5832C24.6712 18.0732 24.7584 17.6205 24.803 16.2138C24.803 16.0247 24.9029 15.9375 25.0474 15.9375H30.9804C31.1695 15.9375 31.2672 15.9822 31.3119 16.2138L40.3325 46.8053C40.3877 47.0369 40.3325 47.1708 40.1009 47.1708H35.4301C35.1858 47.1708 35.054 47.1156 35.0094 46.9264L32.6634 38.3924H23.5769L23.5854 38.3946ZM31.4882 33.7897C30.6914 30.6574 28.8214 23.7958 28.1244 20.4744H28.0691C27.472 23.783 25.9654 29.3952 24.8051 33.7897H31.4882ZM44.2383 18.0413C44.2383 16.2159 45.5005 15.1407 47.1389 15.1407C48.8665 15.1407 50.0395 16.3137 50.0395 18.0413C50.0395 19.9113 48.8219 20.9419 47.0836 20.9419C45.39 20.9419 44.2276 19.9134 44.2276 18.0413H44.2383ZM44.5591 24.4822C44.5591 24.2612 44.6484 24.1719 44.88 24.1719H49.3298C49.5848 24.1719 49.6719 24.2612 49.6719 24.5034V46.8712C49.6719 47.1028 49.6272 47.1921 49.3404 47.1921H44.9565C44.6696 47.1921 44.5804 47.0582 44.5804 46.8265V24.48L44.5591 24.4822Z" fill="#F67B2B"/>
</svg>
