<svg width="68" height="68" viewBox="0 0 68 68" fill="none" xmlns="http://www.w3.org/2000/svg">
<path d="M0 0H68V68H0V0Z" fill="#F7DF1E"/>
<path d="M17.8797 56.8257L23.0833 53.6764C24.0873 55.4564 25.0005 56.9625 27.1911 56.9625C29.2909 56.9625 30.6151 56.1412 30.6151 52.9462V31.2186H37.0052V53.0365C37.0052 59.6551 33.1255 62.6678 27.465 62.6678C22.3531 62.6678 19.3858 60.0203 17.8794 56.8251" fill="black"/>
<path d="M40.4763 56.1409L45.6794 53.1285C47.0492 55.3653 48.8295 57.0084 51.9787 57.0084C54.6267 57.0084 56.315 55.6846 56.315 53.8587C56.315 51.6678 54.5805 50.8916 51.6592 49.614L50.062 48.9287C45.4515 46.9665 42.3934 44.5015 42.3934 39.2979C42.3934 34.505 46.0449 30.8531 51.7508 30.8531C55.8133 30.8531 58.7346 32.2684 60.8341 35.9656L55.8584 39.1611C54.7627 37.1984 53.5764 36.4225 51.7505 36.4225C49.8789 36.4225 48.6921 37.6093 48.6921 39.1611C48.6921 41.0781 49.8789 41.8545 52.6175 43.0414L54.215 43.7259C59.647 46.0541 62.7052 48.4274 62.7052 53.7676C62.7052 59.5194 58.1864 62.6686 52.1155 62.6686C46.1817 62.6686 42.3474 59.8387 40.4761 56.1412" fill="black"/>
</svg>
