<svg width="68" height="68" viewBox="0 0 68 68" fill="none" xmlns="http://www.w3.org/2000/svg">
<rect x="2.72021" y="2.71997" width="63.4667" height="63.4667" fill="#F155FF"/>
<path d="M0 0V68H68V0H0ZM28.8918 48.8122L22.6047 35.8554L16.5387 48.7812H10.6267L19.327 32.2065L10.9151 15.4461H17.0513L23.0068 28.1864L28.9125 15.4151H34.6726L26.2537 31.6807L35.1697 48.8122H28.8916H28.8918ZM55.8473 47.4515C53.2497 48.6885 50.5284 49.2451 47.9308 49.2451C41.2206 49.2761 36.4275 45.1323 36.4275 36.7212C36.6459 28.1049 42.3871 23.2969 50.4357 23.9499V15.4461H55.94V44.081C55.9514 47.496 56.3283 47.1676 55.8473 47.4515ZM50.4355 28.8049V44.1118C45.0026 45.5216 41.9986 42.2153 42.0245 36.4738C42.045 30.5857 45.9135 27.5298 50.4355 28.8049Z" fill="#450546"/>
<rect x="1.5" y="1.5" width="65" height="65" stroke="#F155FF" stroke-width="3"/>
</svg>
