<svg width="78" height="76" viewBox="0 0 78 76" fill="none" xmlns="http://www.w3.org/2000/svg">
<path d="M2 2H75V73H2V2Z" fill="#0C0824"/>
<path d="M3.24572 3.24572H74.6293V72.6824H3.24572V3.24572ZM0 75.9281H77.875V0H0V75.9281ZM52.5017 31.15C49.9373 31.15 49.0612 32.4488 49.0612 33.5196C49.0612 34.6877 49.6453 35.4999 53.0857 37.2827C58.181 39.7496 59.7607 42.1165 59.7607 45.5902C59.7607 50.7828 55.803 53.5724 50.4491 53.5724C48.1514 53.6576 45.8676 53.1802 43.7963 52.1818C43.5683 52.0845 43.5377 51.9231 43.5377 51.6617V46.8863C43.5377 46.5609 43.699 46.4636 43.9271 46.6277C45.8722 47.8785 48.1365 48.5428 50.4491 48.5411C53.0134 48.5411 54.0842 47.4704 54.0842 46.0102C54.0842 44.8421 53.3388 43.8047 50.0597 42.1165C45.4512 39.9109 43.5377 37.6665 43.5377 33.9396C43.5377 29.7538 46.814 26.2828 52.4933 26.2828C54.4702 26.1979 56.4443 26.5071 58.3006 27.1923C58.4075 27.2617 58.494 27.3583 58.5511 27.4722C58.6083 27.5861 58.6342 27.7131 58.626 27.8403V32.2903C58.626 32.549 58.4647 32.7131 58.1392 32.6157C56.4237 31.6281 54.4726 31.1235 52.4933 31.1556L52.5017 31.15ZM24.5946 35.0104C25.34 35.0743 25.924 35.0743 27.2229 35.0743C31.0193 35.0743 34.5876 33.7449 34.5876 28.5857C34.5876 24.4639 32.0233 22.3891 27.7096 22.3891C26.4108 22.3891 25.1787 22.453 24.5946 22.4864V35.0104ZM18.8179 17.7666C18.8179 17.5386 19.2713 17.3772 19.5327 17.3772C22.3218 17.2633 25.1129 17.2095 27.9043 17.2159C36.8933 17.2159 40.3977 22.1471 40.3977 28.4438C40.3977 36.6847 34.4263 40.2224 27.0949 40.2224C25.8628 40.2224 25.4401 40.1585 24.564 40.1585V52.6185C24.564 52.8771 24.4667 53.0078 24.1746 53.0078H19.2101C18.9514 53.0078 18.8207 52.9105 18.8207 52.6185V17.7805L18.8179 17.7666Z" fill="#31C5F0"/>
</svg>
