<svg width="130" height="80" viewBox="0 0 130 80" fill="none" xmlns="http://www.w3.org/2000/svg">
<g clip-path="url(#clip0)">
<path d="M64.2658 79.7691C63.8258 79.7691 63.415 79.6514 63.0334 79.4453L59.1306 77.1192C58.5436 76.7951 58.8371 76.6774 59.0133 76.6186C59.8055 76.3536 59.9522 76.2945 60.7739 75.8237C60.862 75.7646 60.9795 75.7941 61.0674 75.853L64.0607 77.6491C64.178 77.708 64.3248 77.708 64.4126 77.6491L76.1215 70.8471C76.2388 70.7882 76.2977 70.6703 76.2977 70.5233V56.9488C76.2977 56.8012 76.2388 56.6838 76.1215 56.6247L64.4126 49.8522C64.2953 49.7931 64.1485 49.7931 64.0607 49.8522L52.3518 56.6247C52.2345 56.6835 52.1756 56.8308 52.1756 56.9485V70.523C52.1756 70.641 52.2345 70.788 52.3518 70.8471L55.5505 72.7021C57.2819 73.5854 58.3676 72.5549 58.3676 71.5243V58.1263C58.3676 57.9498 58.5144 57.773 58.7198 57.773H60.2163C60.3925 57.773 60.5685 57.9202 60.5685 58.1263V71.5243C60.5685 73.8504 59.3065 75.2051 57.1057 75.2051C56.4308 75.2051 55.9027 75.2051 54.4059 74.4688L51.3247 72.7021C50.5618 72.2606 50.0923 71.4359 50.0923 70.5526V56.9781C50.0923 56.0947 50.5618 55.27 51.3247 54.8285L63.0334 48.0265C63.7672 47.6142 64.765 47.6142 65.4986 48.0265L77.2072 54.8285C77.9702 55.27 78.4399 56.0947 78.4399 56.9781V70.5526C78.4399 71.4359 77.9702 72.2606 77.2072 72.7021L65.4986 79.5042C65.1169 79.681 64.6769 79.7691 64.2661 79.7691H64.2658ZM67.8754 70.4349C62.7401 70.4349 61.6836 68.0792 61.6836 66.0769C61.6836 65.9001 61.8304 65.7235 62.0358 65.7235H63.5618C63.7377 65.7235 63.8845 65.8412 63.8845 66.0181C64.1193 67.5786 64.7942 68.3442 67.9048 68.3442C70.3697 68.3442 71.4265 67.7847 71.4265 66.4596C71.4265 65.694 71.1327 65.1347 67.2886 64.7518C64.0899 64.4277 62.0944 63.7212 62.0944 61.1595C62.0944 58.7742 64.0901 57.3607 67.4354 57.3607C71.1914 57.3607 73.0403 58.6565 73.2752 61.483C73.2752 61.5717 73.2457 61.6598 73.1871 61.7482C73.1282 61.8071 73.0403 61.866 72.9522 61.866H71.4263C71.2795 61.866 71.1327 61.7482 71.1035 61.601C70.7514 59.9816 69.8416 59.4514 67.4354 59.4514C64.7356 59.4514 64.4126 60.3938 64.4126 61.1003C64.4126 61.9544 64.7942 62.2193 68.433 62.6904C72.0425 63.1617 73.7447 63.8389 73.7447 66.3712C73.7152 68.9625 71.6025 70.4349 67.8754 70.4349Z" fill="#539E43"/>
<path d="M27.9367 26.6782C27.9367 26.1483 27.6432 25.6474 27.1737 25.3824L14.7313 18.1977C14.5257 18.0797 14.2911 18.0209 14.0564 17.9913H13.9389C13.7043 17.9913 13.4694 18.0797 13.264 18.1977L0.821582 25.3824C0.351855 25.6474 0.0585938 26.148 0.0585938 26.6782L0.0880469 45.9946C0.0880469 46.2596 0.234805 46.5246 0.469414 46.6425C0.704277 46.7898 0.997539 46.7898 1.2032 46.6425L8.59822 42.4023C9.0677 42.1373 9.36121 41.6367 9.36121 41.1067V32.0667C9.36121 31.5368 9.65447 31.0362 10.1242 30.7712L13.264 28.9455C13.4989 28.7982 13.7629 28.7391 14.027 28.7391C14.2911 28.7391 14.5551 28.7982 14.7608 28.9455L17.9006 30.7712C18.3703 31.0362 18.6636 31.5366 18.6636 32.0667V41.1067C18.6636 41.6367 18.9571 42.1373 19.4266 42.4023L26.8216 46.6425C27.0564 46.7898 27.3497 46.7898 27.5846 46.6425C27.8194 46.5246 27.9662 46.2596 27.9662 45.9946L27.9367 26.6782Z" fill="#333333"/>
<path d="M87.7426 0.0883492C87.508 -0.0296125 87.2145 -0.0296125 87.0088 0.0883492C86.7742 0.23561 86.6274 0.471024 86.6274 0.735992V19.8761C86.6274 20.0527 86.5396 20.2292 86.3634 20.3472C86.1874 20.4353 86.0112 20.4353 85.8353 20.3472L82.7247 18.551C82.4966 18.4207 82.2387 18.3522 81.9763 18.3522C81.7138 18.3522 81.4559 18.4207 81.2279 18.551L68.7855 25.7653C68.316 26.0303 68.0225 26.5309 68.0225 27.0608V41.4598C68.0225 41.9897 68.316 42.4906 68.7855 42.7556L81.2279 49.9699C81.4559 50.1002 81.7138 50.1687 81.9763 50.1687C82.2387 50.1687 82.4966 50.1002 82.7247 49.9699L95.1671 42.7556C95.6365 42.4906 95.9301 41.99 95.9301 41.4598V5.56529C95.9301 5.0058 95.6365 4.50542 95.1671 4.24019L87.7428 0.0883492H87.7426ZM86.5982 36.7192C86.5982 36.8664 86.5396 36.9841 86.422 37.043L82.1671 39.5164C82.1076 39.5455 82.0424 39.5606 81.9763 39.5606C81.9101 39.5606 81.8449 39.5455 81.7855 39.5164L77.5305 37.043C77.4129 36.9841 77.3543 36.8369 77.3543 36.7192V31.7722C77.3543 31.6249 77.4129 31.5072 77.5305 31.4483L81.7855 28.9747C81.8449 28.9456 81.9101 28.9305 81.9763 28.9305C82.0424 28.9305 82.1076 28.9456 82.1671 28.9747L86.422 31.4483C86.5396 31.5069 86.5982 31.6545 86.5982 31.7722V36.7192Z" fill="#333333"/>
<path d="M129.149 31.6544C129.619 31.3894 129.883 30.8888 129.883 30.3586V26.8546C129.883 26.3247 129.589 25.8241 129.149 25.5591L116.795 18.3744C116.567 18.2441 116.309 18.1757 116.046 18.1757C115.784 18.1757 115.526 18.2441 115.298 18.3744L102.856 25.5884C102.386 25.8534 102.093 26.354 102.093 26.8842V41.2832C102.093 41.8131 102.386 42.3138 102.856 42.5787L115.21 49.6457C115.68 49.9107 116.237 49.9107 116.677 49.6457L124.16 45.4648C124.395 45.3469 124.542 45.0819 124.542 44.8169C124.542 44.552 124.395 44.287 124.16 44.169L111.659 36.9548C111.425 36.8078 111.278 36.5721 111.278 36.3071V31.8019C111.278 31.5369 111.425 31.272 111.659 31.154L115.562 28.916C115.676 28.8439 115.809 28.8056 115.944 28.8056C116.079 28.8056 116.211 28.8439 116.325 28.916L120.228 31.154C120.463 31.3013 120.61 31.5367 120.61 31.8019V35.3354C120.61 35.6004 120.756 35.8653 120.991 35.9831C121.226 36.1303 121.519 36.1303 121.754 35.9831L129.149 31.6544V31.6544Z" fill="#333333"/>
<path d="M115.855 30.9773C115.899 30.9486 115.95 30.9332 116.002 30.9332C116.054 30.9332 116.105 30.9486 116.149 30.9773L118.526 32.3613C118.614 32.4199 118.672 32.5083 118.672 32.6262V35.3941C118.672 35.5118 118.614 35.6002 118.526 35.6591L116.149 37.043C116.105 37.0718 116.054 37.0871 116.002 37.0871C115.95 37.0871 115.899 37.0718 115.855 37.043L113.478 35.6591C113.39 35.6002 113.332 35.5118 113.332 35.3941V32.6262C113.332 32.5083 113.39 32.4199 113.478 32.3613L115.855 30.9773V30.9773Z" fill="#539E43"/>
<mask id="mask0" mask-type="alpha" maskUnits="userSpaceOnUse" x="34" y="18" width="28" height="32">
<path d="M48.7428 18.4332C48.5148 18.303 48.2569 18.2345 47.9946 18.2345C47.7322 18.2345 47.4743 18.303 47.2463 18.4332L34.892 25.5881C34.4223 25.8531 34.1582 26.3537 34.1582 26.8837V41.2241C34.1582 41.754 34.4517 42.2546 34.892 42.5196L47.2463 49.675C47.4743 49.8053 47.7322 49.8738 47.9946 49.8738C48.2569 49.8738 48.5148 49.8053 48.7428 49.675L61.0974 42.5196C61.5669 42.2546 61.8312 41.754 61.8312 41.2241V26.8839C61.8312 26.354 61.5374 25.8534 61.0974 25.5884L48.7428 18.4332Z" fill="white"/>
</mask>
<g mask="url(#mask0)">
<path d="M48.7428 18.4332C48.5148 18.303 48.2569 18.2345 47.9946 18.2345C47.7322 18.2345 47.4743 18.303 47.2463 18.4332L34.892 25.5881C34.4223 25.8531 34.1582 26.3537 34.1582 26.8837V41.2241C34.1582 41.754 34.4517 42.2546 34.892 42.5196L47.2463 49.675C47.4743 49.8053 47.7322 49.8738 47.9946 49.8738C48.2569 49.8738 48.5148 49.8053 48.7428 49.675L61.0974 42.5196C61.5669 42.2546 61.8312 41.754 61.8312 41.2241V26.8839C61.8312 26.354 61.5374 25.8534 61.0974 25.5884L48.7428 18.4332Z" fill="url(#paint0_linear)"/>
<path d="M61.1267 25.5883L48.7137 18.4331C48.5918 18.3713 48.4639 18.322 48.3321 18.2859L34.4224 42.1962C34.5376 42.3374 34.6767 42.457 34.8334 42.5496L47.2464 49.705C47.5986 49.9111 48.0094 49.97 48.3908 49.852L61.4497 25.8831C61.3616 25.7654 61.244 25.6767 61.1267 25.5886V25.5883Z" fill="url(#paint1_linear)"/>
<path fill-rule="evenodd" clip-rule="evenodd" d="M61.1559 42.5199C61.5081 42.3137 61.7722 41.9604 61.8897 41.5777L48.273 18.2564C47.9208 18.1976 47.5392 18.2269 47.2167 18.433L34.8916 25.5591L48.1849 49.8814C48.3782 49.8496 48.566 49.7902 48.7424 49.7048L61.1557 42.5201L61.1559 42.5199Z" fill="url(#paint2_linear)"/>
<path fill-rule="evenodd" clip-rule="evenodd" d="M61.1562 42.5199L48.7724 49.6754C48.5976 49.7648 48.4092 49.8245 48.2148 49.8519L48.4497 50.2937L62.1832 42.3141V42.1373L61.8311 41.5482C61.7724 41.9604 61.5084 42.3138 61.1562 42.5199V42.5199Z" fill="url(#paint3_linear)"/>
<path fill-rule="evenodd" clip-rule="evenodd" d="M61.1562 42.5199L48.7724 49.6754C48.5976 49.7648 48.4092 49.8245 48.2148 49.8519L48.4497 50.2937L62.1832 42.3141V42.1373L61.8311 41.5482C61.7724 41.9604 61.5084 42.3138 61.1562 42.5199V42.5199Z" fill="url(#paint4_linear)"/>
</g>
</g>
<defs>
<linearGradient id="paint0_linear" x1="53.0279" y1="23.7673" x2="39.4202" y2="45.0758" gradientUnits="userSpaceOnUse">
<stop stop-color="#41873F"/>
<stop offset="0.3288" stop-color="#418B3D"/>
<stop offset="0.6352" stop-color="#419637"/>
<stop offset="0.9319" stop-color="#3FA92D"/>
<stop offset="1" stop-color="#3FAE2A"/>
</linearGradient>
<linearGradient id="paint1_linear" x1="46.119" y1="35.7338" x2="80.0859" y2="17.3425" gradientUnits="userSpaceOnUse">
<stop offset="0.1376" stop-color="#41873F"/>
<stop offset="0.4032" stop-color="#54A044"/>
<stop offset="0.7136" stop-color="#66B848"/>
<stop offset="0.9081" stop-color="#6CC04A"/>
</linearGradient>
<linearGradient id="paint2_linear" x1="33.7067" y1="34.0545" x2="62.2944" y2="34.0545" gradientUnits="userSpaceOnUse">
<stop offset="0.09192" stop-color="#6CC04A"/>
<stop offset="0.2864" stop-color="#66B848"/>
<stop offset="0.5968" stop-color="#54A044"/>
<stop offset="0.8624" stop-color="#41873F"/>
</linearGradient>
<linearGradient id="paint3_linear" x1="33.7071" y1="45.945" x2="62.2946" y2="45.945" gradientUnits="userSpaceOnUse">
<stop offset="0.09192" stop-color="#6CC04A"/>
<stop offset="0.2864" stop-color="#66B848"/>
<stop offset="0.5968" stop-color="#54A044"/>
<stop offset="0.8624" stop-color="#41873F"/>
</linearGradient>
<linearGradient id="paint4_linear" x1="66.4594" y1="23.0892" x2="59.1691" y2="61.1597" gradientUnits="userSpaceOnUse">
<stop stop-color="#41873F"/>
<stop offset="0.3288" stop-color="#418B3D"/>
<stop offset="0.6352" stop-color="#419637"/>
<stop offset="0.9319" stop-color="#3FA92D"/>
<stop offset="1" stop-color="#3FAE2A"/>
</linearGradient>
<clipPath id="clip0">
<rect width="130" height="80" fill="white"/>
</clipPath>
</defs>
</svg>
