<svg width="89" height="89" viewBox="0 0 89 89" fill="none" xmlns="http://www.w3.org/2000/svg">
<path d="M8 9H81V80H8V9Z" fill="#0C0824"/>
<path d="M8.80822 9.78161H80.1918V79.2183H8.80822V9.78161ZM5.5625 82.464H83.4375V6.53589H5.5625V82.464ZM58.0642 37.6859C55.4998 37.6859 54.6237 38.9847 54.6237 40.0555C54.6237 41.2236 55.2078 42.0358 58.6482 43.8185C63.7435 46.2855 65.3232 48.6524 65.3232 52.1261C65.3232 57.3187 61.3655 60.1083 56.0116 60.1083C53.7139 60.1935 51.4301 59.7161 49.3588 58.7177C49.1308 58.6204 49.1002 58.459 49.1002 58.1976V53.4222C49.1002 53.0968 49.2615 52.9994 49.4896 53.1635C51.4347 54.4144 53.699 55.0787 56.0116 55.077C58.5759 55.077 59.6467 54.0063 59.6467 52.5461C59.6467 51.378 58.9013 50.3406 55.6222 48.6524C51.0137 46.4468 49.1002 44.2024 49.1002 40.4755C49.1002 36.2897 52.3765 32.8187 58.0558 32.8187C60.0327 32.7338 62.0068 33.043 63.8631 33.7282C63.97 33.7976 64.0565 33.8942 64.1136 34.0081C64.1708 34.1219 64.1967 34.249 64.1885 34.3762V38.8262C64.1885 39.0849 64.0272 39.2489 63.7017 39.1516C61.9862 38.164 60.0351 37.6594 58.0558 37.6914L58.0642 37.6859ZM30.1571 41.5463C30.9025 41.6102 31.4865 41.6102 32.7854 41.6102C36.5818 41.6102 40.1501 40.2808 40.1501 35.1216C40.1501 30.9998 37.5858 28.9249 33.2721 28.9249C31.9733 28.9249 30.7412 28.9889 30.1571 29.0223V41.5463ZM24.3804 24.3025C24.3804 24.0744 24.8338 23.9131 25.0952 23.9131C27.8843 23.7992 30.6754 23.7454 33.4668 23.7518C42.4558 23.7518 45.9602 28.683 45.9602 34.9797C45.9602 43.2206 39.9888 46.7583 32.6574 46.7583C31.4253 46.7583 31.0026 46.6944 30.1265 46.6944V59.1543C30.1265 59.413 30.0292 59.5437 29.7371 59.5437H24.7726C24.5139 59.5437 24.3832 59.4464 24.3832 59.1543V24.3164L24.3804 24.3025Z" fill="#31C5F0"/>
</svg>
