<svg width="72" height="64" viewBox="0 0 72 64" fill="none" xmlns="http://www.w3.org/2000/svg">
<path d="M59.1983 20.7226C58.4321 20.4602 57.6594 20.2171 56.8808 19.9936C57.0116 19.4603 57.132 18.9334 57.2389 18.4158C58.9933 9.91586 57.8464 3.06814 53.9288 0.813547C50.1727 -1.34786 44.03 0.905898 37.8262 6.29453C37.2147 6.82655 36.6169 7.37391 36.0332 7.93607C35.6424 7.56225 35.2448 7.19569 34.8404 6.83656C28.3385 1.07488 21.8213 -1.35347 17.908 0.907582C14.1553 3.07572 13.0441 9.51306 14.6236 17.5686C14.7807 18.3665 14.9582 19.1602 15.1557 19.949C14.2332 20.2106 13.3431 20.4891 12.4912 20.7855C4.86816 23.4381 0 27.595 0 31.9069C0 36.3602 5.22619 40.827 13.1659 43.5355C13.8096 43.7542 14.4586 43.9568 15.1124 44.1432C14.9001 44.9928 14.7116 45.8482 14.5471 46.7083C13.0413 54.6241 14.2172 60.9093 17.9598 63.0637C21.8253 65.2885 28.3132 63.0019 34.6303 57.4903C35.1426 57.0422 35.6435 56.5815 36.1328 56.1084C36.7649 56.7171 37.4139 57.3082 38.079 57.8808C44.1984 63.1361 50.2419 65.2582 53.9809 63.0979C57.8427 60.8666 59.0979 54.1146 57.4684 45.8999C57.34 45.2563 57.1961 44.6159 57.0367 43.9793C57.4923 43.8446 57.9395 43.7059 58.3754 43.5616C66.6295 40.8324 72 36.4197 72 31.9069C72 27.5793 66.9746 23.3943 59.1983 20.7226V20.7226ZM57.4082 40.6479C57.0144 40.7779 56.6106 40.9034 56.1988 41.0255C55.2876 38.1463 54.0579 35.085 52.553 31.9218C53.989 28.834 55.1714 25.8117 56.0571 22.9514C56.7937 23.1641 57.5083 23.3884 58.1974 23.6251C64.8602 25.9145 68.9242 29.2989 68.9242 31.9069C68.9242 34.6847 64.5351 38.2909 57.4082 40.6479V40.6479ZM54.4511 46.4961C55.1717 50.1284 55.2743 53.4126 54.7971 55.9801C54.3684 58.2872 53.5061 59.8252 52.4396 60.4413C50.1708 61.7522 45.3184 60.0484 40.0852 55.5538C39.4665 55.0214 38.8628 54.4719 38.2747 53.906C40.3037 51.6916 42.3312 49.1173 44.3101 46.258C47.7908 45.9498 51.0792 45.4457 54.0613 44.7577C54.2081 45.3491 54.3386 45.9291 54.4511 46.4961V46.4961ZM24.5464 60.2148C22.3296 60.996 20.5639 61.0185 19.4965 60.4043C17.2254 59.0971 16.2813 54.0503 17.5691 47.2809C17.7222 46.481 17.8975 45.6855 18.0948 44.8952C21.044 45.5465 24.3084 46.0147 27.7973 46.2971C29.7897 49.0948 31.8757 51.6663 33.9781 53.9181C33.5313 54.3496 33.074 54.77 32.6064 55.179C29.8128 57.6161 27.0135 59.3452 24.5464 60.2148V60.2148ZM14.1609 40.6308C10.6501 39.4331 7.75069 37.8766 5.76338 36.178C3.97744 34.6519 3.07603 33.1364 3.07603 31.9069C3.07603 29.2902 6.98456 25.9526 13.5037 23.6843C14.2948 23.4092 15.1228 23.1495 15.982 22.9059C16.8832 25.8308 18.065 28.8891 19.4912 31.9815C18.0464 35.1198 16.8477 38.2269 15.9379 41.1863C15.3411 41.0157 14.7486 40.8305 14.1609 40.6308V40.6308ZM17.6423 16.9789C16.2892 10.0773 17.1877 4.87109 19.4493 3.56442C21.8579 2.1727 27.1842 4.15699 32.7982 9.13214C33.1643 9.4573 33.5245 9.78905 33.8785 10.1272C31.7866 12.3692 29.7197 14.9216 27.745 17.7028C24.3588 18.0161 21.1174 18.5191 18.1372 19.1931C17.9536 18.4594 17.7886 17.7212 17.6423 16.9792V16.9789ZM48.6998 24.6331C47.9959 23.4196 47.2659 22.2213 46.5103 21.0392C48.8076 21.3292 51.0086 21.714 53.0755 22.1845C52.4551 24.1696 51.6817 26.2448 50.7713 28.3726C50.1058 27.1124 49.4152 25.8657 48.6998 24.6331V24.6331ZM36.0346 12.3212C37.4532 13.8552 38.8741 15.5678 40.2716 17.426C37.4366 17.2924 34.5969 17.2918 31.7618 17.4244C33.1608 15.5832 34.5938 13.8729 36.0346 12.3212ZM23.2881 24.6541C22.5817 25.8768 21.9039 27.1158 21.2555 28.37C20.36 26.2499 19.5936 24.1651 18.9678 22.1519C21.022 21.6933 23.2127 21.3182 25.4953 21.0336C24.7313 22.2229 23.9953 23.43 23.2881 24.6538V24.6541ZM25.5608 42.9985C23.2026 42.7358 20.979 42.3801 18.9253 41.9338C19.5609 39.8847 20.3442 37.7556 21.2591 35.59C21.9102 36.8452 22.5907 38.0849 23.3002 39.3081C24.0297 40.5657 24.7852 41.7974 25.5608 42.9985ZM36.1195 51.7087C34.6615 50.139 33.2075 48.4023 31.7874 46.5345C33.1661 46.5884 34.5715 46.6159 36 46.6159C37.4676 46.6159 38.9183 46.5831 40.3462 46.5197C38.9441 48.4211 37.5286 50.1604 36.1195 51.7087ZM50.8002 35.4794C51.7627 37.6688 52.5738 39.7867 53.2178 41.8008C51.1304 42.2763 48.8765 42.6592 46.5016 42.9435C47.2626 41.7395 47.9995 40.5204 48.7119 39.2871C49.4363 38.0335 50.1325 36.7639 50.8002 35.4794V35.4794ZM46.0477 37.7533C44.957 39.6442 43.8051 41.4993 42.5936 43.3154C40.3992 43.4706 38.1999 43.5476 36 43.5465C33.7593 43.5465 31.5799 43.4768 29.4812 43.341C28.2381 41.529 27.0642 39.6707 25.9619 37.7702H25.9622C24.8651 35.8797 23.8403 33.9483 22.8901 31.9801C23.8379 30.0116 24.8596 28.0792 25.9529 26.1873L25.9526 26.1876C27.0456 24.2952 28.2101 22.4448 29.4438 20.6406C31.5849 20.4789 33.7807 20.3947 35.9997 20.3947H36C38.2292 20.3947 40.4277 20.4798 42.5683 20.6426C43.7895 22.4441 44.9466 24.2881 46.0375 26.171C47.1345 28.0588 48.1697 29.9817 49.1414 31.9366C48.1797 33.9116 47.1478 35.8517 46.0477 37.7533V37.7533ZM52.3927 3.47292C54.8035 4.8607 55.7412 10.4571 54.2264 17.796C54.1297 18.2642 54.0211 18.7411 53.903 19.2248C50.9155 18.5365 47.6719 18.0248 44.2758 17.7067C42.2975 14.895 40.2474 12.3386 38.1895 10.1255C38.7289 9.60667 39.281 9.10125 39.8455 8.60976C45.1612 3.99306 50.1292 2.17018 52.3927 3.47292V3.47292ZM36 25.49C39.5508 25.49 42.4294 28.363 42.4294 31.9069C42.4294 35.4507 39.5508 38.3237 36 38.3237C32.4492 38.3237 29.5706 35.4507 29.5706 31.9069C29.5706 28.363 32.4492 25.49 36 25.49V25.49Z" fill="#00D8FF"/>
</svg>
