<svg width="68" height="51" viewBox="0 0 68 51" fill="none" xmlns="http://www.w3.org/2000/svg">
<path d="M58.5122 29.3553C56.1466 29.3675 54.0904 29.9373 52.3689 30.7795C51.737 29.5285 51.1053 28.4139 50.994 27.5963C50.87 26.6427 50.7215 26.0605 50.8699 24.9209C51.0187 23.7814 51.6875 22.1587 51.6751 22.0349C51.6628 21.9111 51.5263 21.3289 50.1639 21.3167C48.8015 21.3042 47.6248 21.5767 47.4885 21.9358C47.3523 22.295 47.0922 23.1125 46.9188 23.9546C46.6834 25.1935 44.194 29.615 42.7697 31.9313C42.3112 31.0274 41.9149 30.2345 41.8281 29.6028C41.7043 28.6492 41.5555 28.067 41.7043 26.9275C41.853 25.7879 42.5219 24.1655 42.5094 24.0414C42.4969 23.9177 42.3607 23.3354 40.9983 23.3232C39.6356 23.3107 38.4589 23.5832 38.3229 23.9424C38.1866 24.3018 38.0379 25.1438 37.7531 25.9614C37.4681 26.779 34.1611 34.1612 33.2941 36.0684C32.9437 36.8404 32.5762 37.6044 32.1917 38.36C32.1917 38.36 32.1792 38.3971 32.1421 38.459C32.0213 38.6959 31.8975 38.9313 31.7707 39.1651V39.1773C31.5848 39.512 31.3866 39.8214 31.2875 39.8214C31.2132 39.8214 31.0769 38.9297 31.3122 37.7158C31.8076 35.152 32.9844 31.1636 32.9721 31.0274C32.9721 30.953 33.195 30.2595 32.2042 29.9001C31.2379 29.5409 30.8912 30.1354 30.8044 30.1354C30.7178 30.1354 30.6556 30.3461 30.6556 30.3461C30.6556 30.3461 31.7335 25.8623 28.5997 25.8623C26.6428 25.8623 23.9425 28.0051 22.6048 29.9373C21.0841 30.7648 19.5647 31.5947 18.0467 32.427C17.3162 32.8358 16.5605 33.2445 15.8545 33.6284C15.8048 33.579 15.7554 33.5168 15.7057 33.4674C11.9155 29.4172 4.90514 26.5558 5.20237 21.1185C5.31393 19.1367 5.995 13.9344 18.6661 7.61758C29.0951 2.4772 37.394 3.90149 38.8308 7.06003C40.8867 11.5688 34.3842 19.9418 23.6081 21.1554C19.4959 21.6139 17.3406 20.0284 16.7958 19.4339C16.2261 18.8145 16.1392 18.7773 15.9286 18.9013C15.5819 19.0873 15.8048 19.6445 15.9286 19.9665C16.2508 20.8085 17.576 22.295 19.8179 23.026C21.7997 23.6698 26.6179 24.0292 32.4518 21.7749C38.9792 19.248 44.0824 12.2251 42.5838 6.34178C41.0849 0.371595 31.176 -1.59775 21.7997 1.73399C16.2261 3.71608 10.1815 6.83717 5.83403 10.8999C0.668949 15.7303 -0.148644 19.9293 0.185778 21.6883C1.38747 27.9307 9.99584 31.9935 13.4391 35.0032C13.2657 35.1023 13.1044 35.1892 12.9684 35.2636C11.2467 36.1181 4.68201 39.5489 3.04709 43.1781C1.18931 47.2903 3.34459 50.2384 4.76887 50.6345C9.19073 51.8609 13.7364 49.6562 16.1764 46.0145C18.6164 42.373 18.3192 37.6414 17.1922 35.4739C17.1797 35.4492 17.1675 35.4243 17.1425 35.3996C17.5885 35.1395 18.0467 34.867 18.4927 34.6069C19.3123 34.1224 20.1424 33.6557 20.9824 33.2071C20.5611 34.3591 20.2514 35.734 20.1029 37.7158C19.9169 40.0445 20.8705 43.0666 22.1216 44.2555C22.6792 44.7761 23.3355 44.7883 23.7568 44.7883C25.2183 44.7883 25.8749 43.5744 26.6056 42.1377C27.4973 40.379 28.3025 38.3353 28.3025 38.3353C28.3025 38.3353 27.2992 43.8595 30.0242 43.8595C31.015 43.8595 32.0183 42.5712 32.4643 41.9148V41.927C32.4643 41.927 32.489 41.8898 32.5386 41.8033C32.6377 41.6423 32.6996 41.5429 32.6996 41.5429V41.5185C33.0959 40.8247 33.9879 39.2517 35.3131 36.6382C37.0224 33.2693 38.6698 29.058 38.6698 29.058C38.6698 29.058 38.8185 30.086 39.3262 31.7953C39.6237 32.7986 40.2426 33.9009 40.7382 34.9661C40.3419 35.5236 40.0941 35.8331 40.0941 35.8331L40.1066 35.8455C39.7844 36.2666 39.4377 36.7248 39.0536 37.171C37.7034 38.781 36.0935 40.6268 35.8704 41.1591C35.6101 41.7908 35.6722 42.2492 36.1679 42.6208C36.527 42.8934 37.1709 42.9303 37.8275 42.8934C39.0414 42.8065 39.8959 42.5093 40.3169 42.3236C40.9736 42.0883 41.7415 41.7289 42.4597 41.1963C43.7852 40.2177 44.59 38.8182 44.5159 36.9729C44.4787 35.9571 44.1443 34.9414 43.7355 33.9875C43.8596 33.8143 43.9709 33.6409 44.0949 33.4674C46.188 30.4079 47.8107 27.0512 47.8107 27.0512C47.8107 27.0512 47.9595 28.0792 48.4671 29.7888C48.7149 30.6558 49.2228 31.5971 49.6685 32.5135C47.6992 34.1115 46.4853 35.9693 46.0518 37.1832C45.2716 39.4376 45.8783 40.4531 47.0303 40.6884C47.5504 40.8 48.2937 40.5522 48.8387 40.3168C49.5323 40.094 50.3499 39.7101 51.1303 39.1401C52.4557 38.1618 53.7313 36.7991 53.6569 34.9538C53.6197 34.1115 53.3968 33.2815 53.0871 32.4764C54.7592 31.7831 56.9145 31.399 59.664 31.7209C65.5601 32.4145 66.7243 36.0931 66.5012 37.6417C66.2783 39.1898 65.0397 40.0321 64.6312 40.2921C64.2221 40.5524 64.0861 40.639 64.1233 40.8247C64.1727 41.0972 64.3709 41.085 64.7178 41.0353C65.201 40.9487 67.8144 39.7842 67.9257 36.9354C68.1117 33.294 64.6434 29.3181 58.5122 29.3553V29.3553ZM13.0303 44.6893C11.0732 46.8196 8.34843 47.6247 7.17172 46.9436C5.9084 46.2126 6.40379 43.0666 8.80664 40.8125C10.2681 39.4376 12.1509 38.1615 13.4019 37.3814C13.6867 37.2079 14.108 36.9604 14.6159 36.6507C14.7024 36.601 14.7521 36.5763 14.7521 36.5763L15.0494 36.3903C15.9286 39.6108 15.0865 42.4474 13.0303 44.6893V44.6893ZM27.2745 35.0032C26.5932 36.6631 25.1689 40.9115 24.3019 40.6762C23.5587 40.478 23.1002 37.2576 24.1531 34.0744C24.6857 32.4764 25.8127 30.5689 26.4694 29.826C27.5345 28.6368 28.7112 28.2402 28.996 28.7236C29.3554 29.3553 27.6955 33.9628 27.2745 35.0032V35.0032ZM39.0289 40.6265C38.7439 40.7753 38.4716 40.8744 38.3476 40.8C38.261 40.7503 38.4716 40.5522 38.4716 40.5522C38.4716 40.5522 39.9456 38.9669 40.5276 38.2484C40.8623 37.8274 41.2583 37.332 41.6796 36.7744V36.9354C41.6796 38.8306 39.8462 40.1064 39.0287 40.6265H39.0289ZM48.0955 38.5581C47.8849 38.4094 47.922 37.914 48.6281 36.3656C48.9006 35.7587 49.5445 34.7432 50.6471 33.7646C50.7709 34.161 50.8577 34.545 50.8452 34.9042C50.8328 37.2948 49.1237 38.1865 48.0955 38.5581Z" fill="#CD6799"/>
</svg>
