<svg width="75" height="75" viewBox="0 0 75 75" fill="none" xmlns="http://www.w3.org/2000/svg">
<path d="M67.9921 11.7889L54.4781 5.28261C53.7149 4.91464 52.8561 4.79321 52.0208 4.93515C51.1856 5.07709 50.4151 5.47538 49.8163 6.0748L5.57806 46.406C5.04132 46.8931 4.72002 47.5734 4.68486 48.2973C4.6497 49.0212 4.90354 49.7294 5.39056 50.2662C5.44915 50.3295 5.50774 50.3904 5.57102 50.4467L9.18274 53.7279C9.65469 54.1575 10.2622 54.4081 10.8997 54.4364C11.5372 54.4646 12.1645 54.2687 12.6726 53.8826L65.9577 13.4764C66.3602 13.171 66.84 12.9839 67.343 12.9364C67.8459 12.8889 68.3522 12.9826 68.8048 13.2072C69.2574 13.4318 69.6383 13.7783 69.9046 14.2076C70.171 14.6369 70.3122 15.1321 70.3124 15.6373V15.4803C70.3124 14.7089 70.0946 13.9533 69.6841 13.3003C69.2736 12.6472 68.6872 12.1233 67.9921 11.7889V11.7889Z" fill="#0065A9"/>
<path d="M67.9921 63.2107L54.4781 69.7193C53.7146 70.0863 52.8561 70.2071 52.0211 70.0652C51.1861 69.9233 50.4157 69.5257 49.8163 68.9271L5.57806 28.5935C5.04132 28.1065 4.72002 27.4262 4.68486 26.7023C4.6497 25.9784 4.90354 25.2701 5.39056 24.7334C5.44915 24.6701 5.50774 24.6092 5.57102 24.5529L9.18274 21.2717C9.65517 20.8403 10.264 20.5886 10.9031 20.5603C11.5422 20.532 12.171 20.729 12.6796 21.117L65.9577 61.5232C66.3602 61.8286 66.84 62.0156 67.343 62.0632C67.8459 62.1107 68.3522 62.0169 68.8048 61.7924C69.2574 61.5678 69.6383 61.2213 69.9046 60.792C70.171 60.3627 70.3122 59.8675 70.3124 59.3623V59.531C70.3099 60.3003 70.091 61.0534 69.6806 61.7041C69.2703 62.3548 68.6852 62.8769 67.9921 63.2107V63.2107Z" fill="#007ACC"/>
<path d="M54.4782 69.7194C53.7148 70.0864 52.8563 70.2072 52.0213 70.0653C51.1862 69.9234 50.4158 69.5258 49.8165 68.9273C50.1531 69.2594 50.5802 69.4849 51.0444 69.5754C51.5085 69.6659 51.9891 69.6174 52.4258 69.4359C52.8625 69.2545 53.2359 68.9482 53.4993 68.5554C53.7627 68.1627 53.9043 67.7009 53.9063 67.228V7.77179C53.9067 7.29668 53.7661 6.83215 53.5023 6.43704C53.2384 6.04192 52.8633 5.734 52.4243 5.55229C51.9853 5.37057 51.5023 5.32323 51.0364 5.41627C50.5705 5.50931 50.1427 5.73854 49.8071 6.07491C50.406 5.47571 51.1763 5.0774 52.0114 4.93506C52.8466 4.79272 53.7053 4.91339 54.4688 5.28038L67.9806 11.7773C68.6778 12.1101 69.2667 12.6332 69.6793 13.2864C70.092 13.9396 70.3115 14.6961 70.3126 15.4687V59.5312C70.3128 60.3031 70.0949 61.0595 69.6839 61.713C69.273 62.3665 68.6858 62.8906 67.9899 63.2249L54.4782 69.7194Z" fill="#1F9CF0"/>
</svg>
